<svg width="125" height="25" viewBox="0 0 125 25" fill="none" xmlns="http://www.w3.org/2000/svg">
<path fill-rule="evenodd" clip-rule="evenodd" d="M12.214 3.40186C13.4958 3.40186 14.5187 4.42483 14.5187 5.71896C14.5187 7.01308 13.5081 8.03606 12.214 8.03606C10.9322 8.03606 9.90918 7.01308 9.90918 5.71896C9.90918 4.42483 10.9322 3.40186 12.214 3.40186Z" fill="#ffffff"/>
<path fill-rule="evenodd" clip-rule="evenodd" d="M9.4656 11.4869H11.4376V9.49025C9.7121 9.14515 8.381 7.57988 8.381 5.7188C8.381 3.88238 9.7121 2.3171 11.4499 1.99665V0H8.80005C8.80005 1.68852 7.41965 3.0566 5.70648 3.0566C4.03028 3.0566 2.64988 1.68852 2.64988 0H0V2.63755C1.6762 2.63755 3.06893 4.03028 3.06893 5.7188C3.06893 7.43198 1.68853 8.8247 0 8.8247V11.4869H1.972C2.3171 9.74907 3.87005 8.40565 5.70648 8.40565C7.56755 8.40565 9.1205 9.73675 9.4656 11.4869Z" fill="#ffffff"/>
<path fill-rule="evenodd" clip-rule="evenodd" d="M20.9648 12.2265C20.9648 13.5206 19.9541 14.519 18.66 14.519C17.3659 14.519 16.3552 13.5206 16.3552 12.2265C16.3552 10.9324 17.3659 9.90942 18.66 9.90942C19.9541 9.90942 20.9648 10.9324 20.9648 12.2265Z" fill="#ffffff"/>
<path fill-rule="evenodd" clip-rule="evenodd" d="M12.9536 9.49025V11.4746H14.9256C15.2707 9.73675 16.8237 8.39333 18.6601 8.39333C20.5088 8.39333 22.0741 9.73675 22.4192 11.4746H24.3666V8.8247C22.715 8.8247 21.3223 7.43198 21.3223 5.7188C21.3223 4.03028 22.7027 2.63755 24.3666 2.63755V0H21.7413C21.7413 1.68853 20.3609 3.0566 18.6478 3.0566C16.9716 3.0566 15.5788 1.68853 15.5788 0H12.929V1.98433C14.6545 2.30478 15.9979 3.87005 15.9979 5.70648C16.0225 7.57988 14.6791 9.14515 12.9536 9.49025Z" fill="#ffffff"/>
<path fill-rule="evenodd" clip-rule="evenodd" d="M12.9536 14.9379V12.9783H14.9256C15.2707 14.6668 16.799 16.0102 18.6354 16.0349C18.6601 16.0349 18.6601 16.0349 18.6601 16.0349C18.6847 16.0349 18.6847 16.0349 18.7094 16.0349C20.5335 16.0102 22.0741 14.6668 22.4192 12.9783H24.3666V15.6158C22.715 15.6158 21.3223 17.0085 21.3223 18.6971C21.3223 20.4102 22.7027 21.803 24.3666 21.803V24.4652H21.7413C21.7413 22.7766 20.3609 21.3839 18.6478 21.3839C16.9716 21.3839 15.5788 22.7766 15.5788 24.4652H12.929V22.4808C14.6298 22.1357 15.9732 20.5951 15.9979 18.7587C15.9979 18.734 15.9979 18.734 15.9979 18.7094V18.6847C15.9979 16.8237 14.6545 15.283 12.9536 14.9379Z" fill="#ffffff"/>
<path fill-rule="evenodd" clip-rule="evenodd" d="M11.4499 14.9379C9.73675 15.283 8.40565 16.8237 8.381 18.6601C8.381 18.6847 8.381 18.6847 8.381 18.6847C8.381 18.7094 8.381 18.7094 8.381 18.734C8.40565 20.5705 9.73675 22.1111 11.4499 22.4562V24.4405H8.80005C8.80005 22.752 7.41965 21.3593 5.70648 21.3593C4.03028 21.3593 2.63755 22.752 2.63755 24.4405H0V21.7783C1.6762 21.7783 3.06893 20.3856 3.06893 18.6724C3.06893 16.9839 1.68853 15.5912 0 15.5912V12.9536H1.972C2.3171 14.6421 3.8454 15.9856 5.68183 16.0102C5.70648 16.0102 5.70648 16.0102 5.70648 16.0102C5.73113 16.0102 5.73113 16.0102 5.75578 16.0102C7.57988 15.9856 9.1205 14.6421 9.4656 12.9536H11.4376V14.9379H11.4499Z" fill="#ffffff"/>
<path fill-rule="evenodd" clip-rule="evenodd" d="M3.43848 12.2265C3.43848 10.9324 4.44913 9.90942 5.74325 9.90942C7.02505 9.90942 8.04803 10.9324 8.04803 12.2265C8.04803 13.5206 7.03738 14.519 5.74325 14.519C4.44913 14.519 3.43848 13.5206 3.43848 12.2265Z" fill="#ffffff"/>
<path fill-rule="evenodd" clip-rule="evenodd" d="M12.214 21.0265C10.9322 21.0265 9.90918 20.0036 9.90918 18.7094C9.90918 17.4153 10.9198 16.3923 12.214 16.3923C13.4958 16.3923 14.5187 17.4153 14.5187 18.7094C14.5187 20.0036 13.4958 21.0265 12.214 21.0265Z" fill="#ffffff"/>
<path fill-rule="evenodd" clip-rule="evenodd" d="M113.723 10.4882C112.663 8.99687 111.073 8.60247 109.175 9.36662C107.375 10.1061 106.476 11.4988 106.648 13.3722L113.723 10.4882ZM117.359 10.784C117.556 11.2523 117.63 11.5235 117.728 12.0042L107.844 16.0098C108.83 17.4025 110.568 17.8216 112.367 17.1067C113.624 16.5891 114.24 15.9358 114.696 14.691L118.012 13.3722C118.234 16.3056 116.188 18.8445 113.587 19.8798C109.705 21.4451 105.502 19.7566 103.998 16.0221C102.519 12.2753 104.27 8.09714 108.029 6.58117C111.8 5.06519 115.781 6.81534 117.359 10.784Z" fill="#ffffff"/>
<path fill-rule="evenodd" clip-rule="evenodd" d="M104.676 20.225V17.267H98.1438L104.208 9.41601V6.45801H94.2122V9.41601H100.276L94.2122 17.267V20.225H104.676Z" fill="#ffffff"/>
<path fill-rule="evenodd" clip-rule="evenodd" d="M93.2017 20.25H89.8862V6.45834H93.2017V20.25ZM91.5748 5.23817C90.6381 5.23817 89.9232 4.49867 89.9232 3.57429C89.9232 2.64992 90.6381 1.95972 91.5748 1.95972C92.4868 1.95972 93.2263 2.64992 93.2263 3.57429C93.2263 4.49867 92.4868 5.23817 91.5748 5.23817Z" fill="#ffffff"/>
<path fill-rule="evenodd" clip-rule="evenodd" d="M74.0732 17.5511C71.6452 17.5511 69.9937 15.9118 69.9937 13.4961C69.9937 10.9818 71.6452 9.19471 74.0239 9.19471C76.378 9.19471 78.0542 10.9572 78.0542 13.4715C78.0542 15.727 76.5629 17.5511 74.0732 17.5511ZM87.8156 17.1936C87.3965 17.1936 87.0514 16.8485 87.0514 16.4172V9.49051H89.0234V6.45856H87.0514V1.88599H83.736V6.45856H78.1528V8.31964C77.0189 6.80366 75.6508 6.13811 73.6788 6.13811C69.5992 6.13811 66.6782 9.21936 66.6782 13.4222C66.6782 17.5757 69.5746 20.583 73.6049 20.583C75.5276 20.583 76.8463 19.9668 78.1528 18.4754V20.2626H81.1724V9.49051H83.7483V17.1936C83.7483 18.8822 85.1288 20.2502 86.8173 20.2502H90.0834V17.1936H87.8156Z" fill="#ffffff"/>
<path fill-rule="evenodd" clip-rule="evenodd" d="M62.4262 10.538C61.3662 9.04667 59.7763 8.65227 57.8782 9.41642C56.0788 10.1559 55.1791 11.5486 55.3516 13.422L62.4262 10.538ZM66.062 10.8338C66.2592 11.2775 66.3332 11.5733 66.4318 12.054L56.5471 16.0596C57.5331 17.4523 59.271 17.8714 61.0704 17.1565C62.3276 16.6389 62.9438 15.9856 63.3998 14.7408L66.7153 13.422C66.9371 16.3554 64.8912 18.8943 62.2906 19.9296C58.4082 21.4949 54.2054 19.8064 52.7017 16.0719C51.2227 12.3251 52.9729 8.14695 56.732 6.63097C60.4911 5.115 64.4721 6.86515 66.062 10.8338Z" fill="#ffffff"/>
<path fill-rule="evenodd" clip-rule="evenodd" d="M53.4288 9.26847V6.08862H52.4675C51.0378 6.08862 50.3352 6.48302 49.4725 7.7525V6.40907H46.4282V20.1761H49.7436V12.5223C49.7436 10.39 50.631 9.31777 53.4288 9.26847Z" fill="#ffffff"/>
<path fill-rule="evenodd" clip-rule="evenodd" d="M125 9.26847V6.08862H124.039C122.609 6.08862 121.907 6.48302 121.044 7.7525V6.40907H118V20.1761H121.315V12.5223C121.315 10.39 122.202 9.31777 125 9.26847Z" fill="#ffffff"/>
<path fill-rule="evenodd" clip-rule="evenodd" d="M46.4775 15.702H42.743C41.9295 16.9961 40.9928 17.5384 39.6248 17.5384C37.3446 17.5384 35.6191 15.7267 35.6191 13.3356C35.6191 10.9199 37.2707 9.15744 39.5508 9.15744C41.0298 9.15744 42.0774 9.79834 42.743 11.0678H46.4775C45.4175 7.88796 42.669 6.12549 39.5508 6.12549C35.4712 6.12549 32.3037 9.28069 32.3037 13.3603C32.3037 17.3659 35.5698 20.5704 39.6494 20.5704C42.8416 20.5827 45.3436 18.8202 46.4775 15.702Z" fill="#ffffff"/>
</svg>
