<svg width="24" height="24" viewBox="0 0 24 24" fill="none" xmlns="http://www.w3.org/2000/svg">
<path d="M12 24C5.3736 24 0 18.6264 0 12C0 5.3736 5.3736 0 12 0C18.6264 0 24 5.3736 24 12C24 18.6264 18.6264 24 12 24Z" fill="url(#paint0_linear)"/>
<path d="M12.0022 5.28484C14.1886 5.28484 14.4478 5.29204 15.3118 5.33284C16.111 5.36884 16.5454 5.50324 16.8334 5.61604C17.215 5.76484 17.4886 5.94244 17.7742 6.22804C18.0598 6.51364 18.2374 6.78724 18.3862 7.16884C18.499 7.45684 18.631 7.89124 18.6694 8.69044C18.7078 9.55444 18.7174 9.81364 18.7174 12C18.7174 14.1864 18.7102 14.4456 18.6694 15.3096C18.6334 16.1088 18.499 16.5432 18.3862 16.8312C18.2374 17.2128 18.0598 17.4864 17.7742 17.772C17.4886 18.0576 17.215 18.2352 16.8334 18.384C16.5454 18.4968 16.111 18.6288 15.3118 18.6672C14.4478 18.7056 14.1886 18.7152 12.0022 18.7152C9.81579 18.7152 9.55659 18.708 8.69259 18.6672C7.89339 18.6312 7.45899 18.4968 7.17099 18.384C6.78939 18.2352 6.51579 18.0576 6.23019 17.772C5.94459 17.4864 5.76699 17.2128 5.61819 16.8312C5.50539 16.5432 5.37339 16.1088 5.33499 15.3096C5.29659 14.4456 5.28699 14.1864 5.28699 12C5.28699 9.81364 5.29419 9.55444 5.33499 8.69044C5.37099 7.89124 5.50539 7.45684 5.61819 7.16884C5.76699 6.78724 5.94459 6.51364 6.23019 6.22804C6.51579 5.94244 6.78939 5.76484 7.17099 5.61604C7.45899 5.50324 7.89339 5.37124 8.69259 5.33284C9.55659 5.29204 9.81579 5.28484 12.0022 5.28484ZM12.0022 3.80884C9.77739 3.80884 9.49899 3.81844 8.62539 3.85924C7.75419 3.90004 7.15899 4.03684 6.63579 4.24084C6.09819 4.44724 5.63979 4.72804 5.18619 5.18404C4.73019 5.64004 4.45179 6.09604 4.24059 6.63604C4.03899 7.15684 3.89979 7.75204 3.85899 8.62564C3.81819 9.49924 3.80859 9.77764 3.80859 12.0024C3.80859 14.2272 3.81819 14.5056 3.85899 15.3792C3.89979 16.2504 4.03659 16.8456 4.24059 17.3688C4.44939 17.904 4.73019 18.3624 5.18619 18.816C5.64219 19.272 6.09819 19.5504 6.63819 19.7616C7.15899 19.9632 7.75419 20.1024 8.62779 20.1432C9.50139 20.184 9.77979 20.1936 12.0046 20.1936C14.2294 20.1936 14.5078 20.184 15.3814 20.1432C16.2526 20.1024 16.8478 19.9656 17.371 19.7616C17.9062 19.5528 18.3646 19.272 18.8182 18.816C19.2742 18.36 19.5526 17.904 19.7638 17.364C19.9654 16.8432 20.1046 16.248 20.1454 15.3744C20.1862 14.5008 20.1958 14.2224 20.1958 11.9976C20.1958 9.77284 20.1862 9.49444 20.1454 8.62084C20.1046 7.74964 19.9678 7.15444 19.7638 6.63124C19.555 6.09604 19.2742 5.63764 18.8182 5.18404C18.3622 4.72804 17.9062 4.44964 17.3662 4.23844C16.8454 4.03684 16.2502 3.89764 15.3766 3.85684C14.5054 3.81844 14.227 3.80884 12.0022 3.80884Z" fill="white"/>
<path d="M12.0002 7.79272C9.67697 7.79272 7.79297 9.67672 7.79297 11.9999C7.79297 14.3231 9.67697 16.2071 12.0002 16.2071C14.3234 16.2071 16.2074 14.3231 16.2074 11.9999C16.2074 9.67672 14.3234 7.79272 12.0002 7.79272ZM12.0002 14.7311C10.493 14.7311 9.26897 13.5095 9.26897 11.9999C9.26897 10.4903 10.493 9.26873 12.0002 9.26873C13.5074 9.26873 14.7314 10.4903 14.7314 11.9999C14.7314 13.5095 13.5074 14.7311 12.0002 14.7311Z" fill="white"/>
<path d="M16.3746 8.61131C16.9181 8.61131 17.3586 8.17076 17.3586 7.62731C17.3586 7.08386 16.9181 6.64331 16.3746 6.64331C15.8312 6.64331 15.3906 7.08386 15.3906 7.62731C15.3906 8.17076 15.8312 8.61131 16.3746 8.61131Z" fill="white"/>
<defs>
<linearGradient id="paint0_linear" x1="3.51472" y1="20.4853" x2="20.4853" y2="3.51472" gradientUnits="userSpaceOnUse">
<stop stop-color="#FFD521"/>
<stop offset="0.0551048" stop-color="#FFD020"/>
<stop offset="0.1241" stop-color="#FEC01E"/>
<stop offset="0.2004" stop-color="#FCA71B"/>
<stop offset="0.2821" stop-color="#FA8316"/>
<stop offset="0.3681" stop-color="#F85510"/>
<stop offset="0.4563" stop-color="#F51E09"/>
<stop offset="0.5" stop-color="#F30005"/>
<stop offset="0.5035" stop-color="#F20007"/>
<stop offset="0.5966" stop-color="#E1003B"/>
<stop offset="0.6879" stop-color="#D30067"/>
<stop offset="0.7757" stop-color="#C70088"/>
<stop offset="0.8589" stop-color="#BF00A0"/>
<stop offset="0.9357" stop-color="#BB00AF"/>
<stop offset="1" stop-color="#B900B4"/>
</linearGradient>
</defs>
</svg>
