<svg width="19" height="19" viewBox="0 0 19 19" fill="none" xmlns="http://www.w3.org/2000/svg">
<path d="M4.15625 16.6249C3.99878 16.6249 3.84776 16.5623 3.73641 16.451C3.62506 16.3396 3.5625 16.1886 3.5625 16.0311V2.96865C3.56252 2.86547 3.58942 2.76408 3.64056 2.67447C3.6917 2.58486 3.7653 2.51012 3.85412 2.45762C3.94294 2.40512 4.04391 2.37667 4.14707 2.37507C4.25024 2.37348 4.35204 2.39879 4.44244 2.44852L16.3174 8.97977C16.4105 9.03103 16.4882 9.10633 16.5422 9.19782C16.5963 9.28931 16.6248 9.39363 16.6248 9.4999C16.6248 9.60617 16.5963 9.71049 16.5422 9.80198C16.4882 9.89347 16.4105 9.96877 16.3174 10.02L4.44244 16.5513C4.35477 16.5995 4.25633 16.6249 4.15625 16.6249Z" fill="white"/>
</svg>
