<svg width="23" height="24" viewBox="0 0 23 24" fill="none" xmlns="http://www.w3.org/2000/svg">
<path d="M11.5 24C17.8513 24 23 18.6274 23 12C23 5.37258 17.8513 0 11.5 0C5.14873 0 0 5.37258 0 12C0 18.6274 5.14873 24 11.5 24Z" fill="#039BE5"/>
<path d="M5.26185 11.7402L16.3498 7.27921C16.8644 7.08521 17.3139 7.41021 17.1471 8.22221L17.1481 8.22121L15.2601 17.5022C15.1202 18.1602 14.7455 18.3202 14.2213 18.0102L11.3463 15.7992L9.9596 17.1932C9.80627 17.3532 9.67689 17.4882 9.37981 17.4882L9.58393 14.4352L14.9123 9.41221C15.1442 9.19921 14.8605 9.07921 14.5548 9.29121L7.9701 13.6172L5.13152 12.6932C4.51531 12.4892 4.50189 12.0502 5.26185 11.7402Z" fill="white"/>
</svg>
